<?xml version="1.0" standalone="no"?>
<!DOCTYPE svg PUBLIC "-//W3C//DTD SVG 20010904//EN"
 "http://www.w3.org/TR/2001/REC-SVG-20010904/DTD/svg10.dtd">
<svg version="1.0" xmlns="http://www.w3.org/2000/svg"
 width="500.000000pt" height="500.000000pt" viewBox="0 0 500.000000 500.000000"
 preserveAspectRatio="xMidYMid meet">
<metadata>
Created by potrace 1.14, written by Peter Selinger 2001-2017
</metadata>
<g transform="translate(0.000000,500.000000) scale(0.100000,-0.100000)"
fill="#000000" stroke="none">
<path d="M1776 4950 c-27 -28 -53 -50 -57 -50 -15 0 -35 -50 -114 -285 -43
-126 -107 -313 -142 -415 -35 -102 -89 -265 -119 -363 -49 -163 -53 -181 -40
-205 8 -15 44 -117 81 -227 61 -183 84 -235 106 -235 18 0 199 -94 192 -100
-4 -3 -51 -17 -103 -29 -177 -43 -182 -45 -218 -104 -37 -61 -66 -93 -146
-162 -33 -27 -72 -61 -88 -75 l-29 -26 -2 -284 -1 -285 -52 -91 c-70 -124 -69
-119 -90 -339 -2 -27 -7 -68 -9 -90 -3 -22 -7 -74 -10 -115 -4 -41 -8 -89 -10
-106 -2 -16 -7 -57 -10 -90 l-6 -60 108 -143 c59 -79 120 -161 136 -182 l27
-38 -77 -74 c-125 -119 -223 -205 -249 -220 -8 -4 -14 -13 -14 -19 0 -11 111
-133 302 -330 l123 -128 55 -5 c30 -2 93 -7 140 -11 47 -3 87 -7 90 -9 3 -2
35 -6 72 -9 37 -4 75 -8 85 -10 10 -2 45 -7 78 -11 32 -4 68 -10 80 -13 11 -4
720 -8 1576 -9 l1557 -4 1 103 c1 123 -13 204 -42 239 -39 47 -150 107 -244
130 -48 13 -92 26 -96 30 -5 3 30 45 77 92 l86 86 -4 71 -5 71 59 42 c32 23
61 47 64 54 5 13 -1 53 -29 193 -19 96 -19 93 -34 215 -7 50 -13 99 -15 110
-1 12 -19 29 -47 43 -45 22 -198 77 -292 103 l-49 14 6 55 c6 60 14 114 21
146 2 11 7 45 11 75 3 30 7 65 10 79 2 14 9 54 15 90 5 36 14 83 19 105 5 22
11 59 15 83 3 24 13 80 21 125 31 166 31 159 -2 151 -16 -4 -58 -17 -94 -29
-114 -39 -211 -72 -359 -120 l-144 -48 -103 109 c-73 77 -121 139 -165 214
-153 260 -186 305 -247 342 -31 19 -65 38 -74 41 -20 7 -19 12 35 127 19 41
58 128 85 192 28 65 83 168 123 230 40 62 82 129 94 148 13 19 42 71 65 115
24 44 46 85 50 90 7 9 74 174 75 185 1 3 9 22 18 44 9 21 17 44 17 51 0 16
-242 261 -465 473 -88 83 -202 192 -254 242 l-94 90 -641 0 -641 0 -49 -50z"/>
</g>
</svg>
